<svg width="110" height="114" viewBox="0 0 110 114" fill="none" xmlns="http://www.w3.org/2000/svg">
<path d="M25.05 86.8644C18.62 86.8644 13.17 85.1344 8.78998 81.6744C3.91344 77.7046 0.795365 71.975 0.109985 65.7244V65.3944V65.0644C0.109985 58.3144 2.4 52.5044 6.75 48.2544C14.11 41.0644 24.66 40.8944 26.36 40.9144H38.49V57.4644H26.1C24.68 57.4644 20.44 57.9644 18.29 60.1144C17.7414 60.7011 17.3163 61.392 17.0397 62.1461C16.7632 62.9002 16.6409 63.7022 16.68 64.5044C16.9986 66.1505 17.8787 67.6349 19.17 68.7044C21.67 70.5944 25.85 70.4144 28.92 69.9244C33.97 69.1344 38.92 65.0744 44.65 60.3844C56.89 50.3844 73.65 36.6344 104.31 47.1444L98.93 62.8344C77.02 55.3144 66.93 63.6144 55.16 73.2144C48.16 78.9144 41 84.8144 31.5 86.3044C29.3682 86.6616 27.2114 86.8488 25.05 86.8644Z" fill="#291C48"/>
<path d="M83.87 113.654H71.53V97.0744H83.9C85.32 97.0744 89.56 96.5644 91.71 94.4244C92.36 93.7744 93.22 92.6244 93.32 90.0244C92.9976 88.3825 92.1181 86.9024 90.83 85.8344C88.33 83.9444 84.15 84.1244 81.08 84.6144C76.03 85.4044 71.08 89.4544 65.35 94.1544C56.22 101.624 44.56 111.154 26.51 111.154C19.4089 111.062 12.3728 109.788 5.69 107.384L11.07 91.6944C32.98 99.2144 43.07 90.9144 54.84 81.3144C61.84 75.6144 69 69.7144 78.5 68.2244C87.79 66.7544 95.43 68.3244 101.2 72.8844C106.082 76.851 109.204 82.5816 109.89 88.8344V89.1644V89.4644C109.89 96.2144 107.6 102.024 103.25 106.274C96.17 113.254 86.09 113.654 83.87 113.654Z" fill="#291C48"/>
<path d="M52.38 2.46439C51.2628 1.69904 49.9996 1.17255 48.6695 0.917882C47.3393 0.663218 45.971 0.685859 44.65 0.98438C44.44 0.98438 44.24 1.09439 44.03 1.15439C43.0185 1.10785 42.0128 1.33159 41.1165 1.80262C40.2201 2.27364 39.4654 2.97494 38.93 3.83439C38.82 4.02439 38.71 4.22439 38.61 4.43439C38.1882 4.43403 37.7681 4.48781 37.36 4.5944C34.05 5.4044 31.42 8.70439 32.26 12.2444C33.54 17.5744 38.34 21.9444 44.02 21.7944C46.9054 21.7136 49.6635 20.5885 51.7821 18.628C53.9008 16.6676 55.236 14.0049 55.54 11.1344C55.9 8.0944 55 4.30439 52.38 2.46439Z" fill="#FF6666"/>
<path d="M82.75 7.58437C82.75 7.45437 82.75 7.32438 82.75 7.19438C82.84 4.61438 81.17 1.19436 78.37 0.644364C76.3327 0.095435 74.1805 0.144048 72.17 0.784379C70.1958 1.49127 68.4622 2.7429 67.17 4.39436C65.9691 5.89349 65.2211 7.70426 65.0139 9.61385C64.8066 11.5234 65.1487 13.4525 66 15.1744C69.56 21.9244 79.55 22.4744 83.9 16.2544C84.789 14.9144 85.1623 13.2978 84.9508 11.7037C84.7394 10.1097 83.9575 8.64624 82.75 7.58437Z" fill="#FF6666"/>
</svg>
