<svg width="110" height="108" viewBox="0 0 110 108" fill="none" xmlns="http://www.w3.org/2000/svg">
<path d="M25.0655 81.1899C18.6355 81.1899 13.1855 79.4499 8.80549 75.9999C3.90893 72.0252 0.787615 66.2716 0.125488 59.9998V59.6798V59.3499C0.125488 52.5999 2.4255 46.7799 6.7655 42.5299C14.1255 35.3399 24.6755 35.1699 26.3755 35.1999H38.5355V51.8698H26.1055C24.6955 51.8698 20.4555 52.3699 18.2955 54.5198C17.7519 55.1018 17.3296 55.7861 17.0531 56.533C16.7767 57.2798 16.6517 58.0742 16.6855 58.8698C17.0041 60.5159 17.8842 62.0004 19.1755 63.0698C21.6755 64.9498 25.8555 64.7698 28.9255 64.2898C33.9855 63.4898 38.9255 59.4398 44.6555 54.7498C56.9055 44.7498 73.6555 30.9998 104.315 41.5098L98.9455 57.1898C77.0255 49.6798 66.9455 57.9699 55.1655 67.5799C48.1655 73.2799 41.0055 79.1699 31.5055 80.6699C29.3755 81.0091 27.2224 81.1829 25.0655 81.1899Z" fill="#291C48"/>
<path d="M83.8753 107.97H71.5353V91.3899H83.9153C85.3253 91.3899 89.5653 90.8899 91.7253 88.7399C92.3753 88.0899 93.2253 86.9399 93.3253 84.3499C93.0157 82.7028 92.138 81.2165 90.8453 80.1499C88.3353 78.2699 84.1553 78.4499 81.0853 78.9299C76.0353 79.7299 71.0853 83.7799 65.3553 88.4699C56.2253 95.9499 44.5753 105.47 26.5153 105.47C19.4138 105.372 12.3779 104.095 5.69531 101.69L11.0753 86.0099C32.9953 93.5199 43.1253 85.2299 54.8553 75.6199C61.8553 69.9199 69.0153 64.0299 78.5153 62.5299C87.8053 61.0699 95.4353 62.6399 101.215 67.1899C106.104 71.1709 109.224 76.9211 109.895 83.1899V83.5099V83.8699C109.895 90.6199 107.595 96.4399 103.245 100.69C96.1753 107.57 86.1053 107.97 83.8753 107.97Z" fill="#291C48"/>
<path d="M53.5356 15.1099C47.9656 -0.890112 27.6856 -3.61011 17.1556 8.42989C14.9508 10.6603 13.2255 13.3181 12.0856 16.2399C10.1856 21.0299 17.7556 23.6299 19.6456 18.8499C20.0714 17.762 20.6182 16.7255 21.2756 15.7599C21.6882 15.492 22.0504 15.1535 22.3456 14.7599C22.8305 14.0876 23.3689 13.4555 23.9556 12.8699C25.7093 11.468 27.7652 10.4934 29.9606 10.0232C32.156 9.553 34.4307 9.60013 36.6047 10.1609C38.7788 10.7216 40.7925 11.7805 42.4866 13.2539C44.1807 14.7273 45.5088 16.5746 46.3656 18.6499C48.5356 23.4399 55.2156 19.8699 53.5356 15.1099Z" fill="#FF6666"/>
<path d="M102.016 17.3199C101.626 15.9683 101.097 14.6612 100.436 13.4199C100.439 13.3967 100.439 13.3732 100.436 13.3499C100.306 13.0999 100.156 12.8499 100.016 12.6099C98.7447 10.3972 97.0162 8.48116 94.9455 6.98994L94.8155 6.88993L94.6355 6.76994C86.8255 1.20994 75.3955 1.84994 68.9855 10.6199C67.847 11.9419 66.8762 13.3997 66.0955 14.9599C64.0155 19.1499 70.0955 21.6399 72.9355 18.6199C73.4838 18.2793 73.9323 17.7998 74.2355 17.2299C74.9914 15.8558 76.0142 14.6464 77.2437 13.6728C78.4732 12.6992 79.8847 11.9808 81.3955 11.5599C84.2101 11.2027 87.0612 11.8368 89.4591 13.3533C91.857 14.8697 93.6519 17.1739 94.5355 19.8699C95.9655 24.1099 103.286 21.6799 102.016 17.3199Z" fill="#FF6666"/>
</svg>
