<svg width="37" height="38" viewBox="0 0 37 38" fill="none" xmlns="http://www.w3.org/2000/svg">
<path d="M32.2102 6.10443C30.9072 4.47938 29.2177 3.20685 27.2961 2.40326C25.3745 1.59967 23.282 1.29063 21.2102 1.5044C15.6102 -0.945602 8.81017 1.5044 5.04017 6.5044C2.87052 9.49193 1.54069 13.0061 1.18897 16.6816C0.837254 20.357 1.47648 24.0596 3.04017 27.4044C4.5802 30.7802 7.2456 33.5158 10.5803 35.143C13.9149 36.7702 17.7115 37.1878 21.3201 36.3244C29.3201 34.5044 34.6902 27.3244 35.6302 19.3944C35.9668 17.0631 35.8378 14.6882 35.2508 12.407C34.6638 10.1258 33.6303 7.98369 32.2102 6.10443ZM23.2102 33.4544C20.2022 34.7438 16.8375 34.9387 13.7008 34.0051C10.5641 33.0716 7.85361 31.0687 6.04017 28.3444C4.46381 25.7964 3.52843 22.9043 3.31422 19.9157C3.1 16.9272 3.61329 13.9312 4.81013 11.1844C5.50675 9.42188 6.55105 7.81766 7.88081 6.46729C9.21056 5.11692 10.7985 4.04806 12.5501 3.32441C14.9136 2.47969 17.4967 2.47969 19.8601 3.32441C19.9648 3.48867 20.1153 3.61879 20.293 3.69873C20.4706 3.77868 20.6677 3.80497 20.8601 3.77442C21.5459 4.12152 22.1846 4.55502 22.7602 5.0644C23.7002 5.9444 25.1901 4.79444 24.5801 3.86444C26.7688 4.36403 28.7432 5.54372 30.2202 7.23444C32.5878 10.1492 33.7761 13.846 33.5501 17.5944C33.4101 24.2544 29.5802 30.8644 23.2502 33.4544H23.2102Z" fill="#FF6666" stroke="#FF6666" stroke-miterlimit="10"/>
<path d="M24.5002 15.1544L20.5002 17.3744L18.5001 18.4744L17.5902 18.9844C17.5902 18.6444 17.5902 18.2944 17.5902 17.9844V15.5844L17.7002 10.7744C17.6984 10.4987 17.5922 10.234 17.4029 10.0335C17.2137 9.83294 16.9555 9.71154 16.6804 9.69379C16.4053 9.67604 16.1336 9.76321 15.9202 9.93775C15.7068 10.1123 15.5674 10.3612 15.5302 10.6344L15.4702 16.0044V18.6944C15.4702 19.5544 15.2901 20.6244 16.0601 21.2244C16.8301 21.8244 17.7301 21.4144 18.5001 20.9844L20.8202 19.6944L25.4702 17.1144C26.7002 16.4344 25.7002 14.4744 24.5002 15.1544Z" fill="#FF6666" stroke="#FF6666" stroke-miterlimit="10"/>
</svg>
