<svg width="37" height="42" viewBox="0 0 37 42" fill="none" xmlns="http://www.w3.org/2000/svg">
<path d="M24.7104 0.900834C23.6104 0.260834 22.4704 1.90087 23.5804 2.56087C26.5874 4.28424 29.0988 6.75443 30.8716 9.73256C32.6445 12.7107 33.6189 16.096 33.7004 19.5609C33.7004 26.7309 29.8703 34.0309 23.2903 37.1909C21.7283 37.9921 20.0136 38.4519 18.2602 38.5399C16.5068 38.6278 14.7548 38.3418 13.1204 37.7008C9.9492 36.2364 7.341 33.7792 5.69037 30.7008C2.23037 24.7008 1.76031 16.5508 5.76031 10.6408C9.59031 4.98082 17.8203 2.19085 24.0403 5.48085C25.1703 6.07085 26.3103 4.48083 25.1703 3.83083C18.9003 0.510827 10.9103 2.22084 6.0003 7.22084C0.510305 12.8208 -0.229593 21.5209 2.48041 28.6109C5.27041 35.9009 12.2604 42.0009 20.4804 40.2509C28.4804 38.5509 34.0603 31.1808 35.4003 23.4108C36.1034 19.0179 35.4582 14.515 33.5497 10.4964C31.6413 6.47767 28.5593 3.13203 24.7104 0.900834Z" fill="#FF6666" stroke="#FF6666" stroke-miterlimit="10"/>
<path d="M25.1503 23.7508C24.2603 21.3708 21.4603 20.4108 19.2003 19.9408H19.1302V13.2908C20.1986 13.4776 21.2491 13.7553 22.2702 14.1208C22.5222 14.207 22.7981 14.1896 23.0372 14.0724C23.2763 13.9552 23.4591 13.7478 23.5453 13.4958C23.6315 13.2439 23.614 12.968 23.4968 12.7289C23.3796 12.4897 23.1722 12.307 22.9203 12.2208C21.688 11.8003 20.4191 11.4957 19.1302 11.3108V8.06083C19.1302 6.78083 17.1302 6.64082 17.1302 7.93082V11.2908C15.9164 11.3758 14.753 11.8099 13.7803 12.5408C13.2425 12.8964 12.7858 13.3613 12.4397 13.9052C12.0936 14.4492 11.8659 15.0599 11.7716 15.6976C11.6772 16.3354 11.7183 16.9858 11.8921 17.6067C12.0659 18.2275 12.3685 18.8047 12.7803 19.3008C13.9633 20.4431 15.4607 21.2057 17.0803 21.4908V27.4308C16.0437 26.9884 15.041 26.4703 14.0803 25.8808C12.9803 25.2208 11.8503 26.8808 12.9503 27.5308C14.2476 28.3628 15.6284 29.0566 17.0703 29.6008V33.2208C17.0703 34.5008 19.0703 34.6408 19.0703 33.3508V30.0508C19.9649 30.1439 20.8691 30.0416 21.7203 29.7508C24.2303 28.8908 26.1503 26.3808 25.1503 23.7508ZM13.6903 16.5108C13.6103 15.0308 15.0403 13.7908 16.3603 13.4208C16.6115 13.3436 16.8691 13.29 17.1302 13.2608V19.4708C15.4802 19.0108 13.8103 18.2108 13.6903 16.5108ZM23.0303 26.4608C22.6173 27.0872 22.0213 27.5712 21.3235 27.8467C20.6256 28.1223 19.8598 28.1761 19.1302 28.0008V22.0008L19.5102 22.0908C21.3402 22.5408 24.6603 24.0308 23.0303 26.4608Z" fill="#FF6666" stroke="#FF6666" stroke-miterlimit="10"/>
</svg>
