<svg width="37" height="37" viewBox="0 0 37 37" fill="none" xmlns="http://www.w3.org/2000/svg">
<path d="M35.9549 16.1297C34.9549 7.89967 27.3549 1.21968 19.1249 0.889684C16.7624 0.8306 14.414 1.27331 12.2352 2.18863C10.0563 3.10396 8.0965 4.47108 6.48493 6.19968C3.54224 8.56587 1.52169 11.8884 0.774477 15.5897C0.0272669 19.291 0.600559 23.1372 2.39484 26.4597C6.39484 33.6697 15.3948 37.7897 23.3948 35.3497C27.3653 34.0571 30.7752 31.4468 33.0594 27.9514C35.3436 24.456 36.3652 20.2851 35.9549 16.1297Z" fill="#FF6666"/>
<path d="M25.9249 17.1497L14.985 11.3897C14.6494 11.1748 14.2447 11.0955 13.8529 11.1679C13.4611 11.2404 13.1115 11.4591 12.875 11.7797C12.6502 12.1122 12.5651 12.5198 12.638 12.9145C12.711 13.3092 12.9361 13.6594 13.2649 13.8897L22.125 18.5597L13.4549 24.3596C13.1528 24.624 12.9668 24.9966 12.9369 25.3969C12.9069 25.7973 13.0355 26.1933 13.2949 26.4997C13.562 26.7965 13.9329 26.9797 14.331 27.0113C14.7292 27.0429 15.1242 26.9206 15.4349 26.6696L26.0549 19.5496C26.2304 19.3979 26.3688 19.208 26.4596 18.9945C26.5503 18.7809 26.5909 18.5494 26.5783 18.3178C26.5658 18.0861 26.5004 17.8604 26.3872 17.6579C26.2739 17.4554 26.1157 17.2816 25.9249 17.1497Z" fill="white"/>
</svg>



