<svg id="Layer_1" data-name="Layer 1" xmlns="http://www.w3.org/2000/svg" viewBox="0 0 595.28 841.89"><defs><style>.cls-1{fill:#f66;}</style></defs><path class="cls-1" d="M335.85,514.52a91.07,91.07,0,0,1-22.08-2.69c-17.22-4.36-30.44-15.35-37.23-30.93a85.29,85.29,0,0,1-4.31-12.49c-6-23.1-1.33-46.65,12.56-63,17.82-21,49.63-29.55,74-20,.45.17,1.08.37,1.76.57a29.79,29.79,0,0,1,6.08,2.4,49.53,49.53,0,0,1,7.85,5.59c10.14,8.39,33.46,31.18,31,61.58-1.32,16.28-9.51,31.33-23.06,42.39a74.39,74.39,0,0,1-44.36,16.51C337.32,514.52,336.58,514.52,335.85,514.52Zm1.7-111.93c-13.42,0-28,6.13-36.76,16.43-9.31,11-12.47,27.86-8.24,44.09a64.16,64.16,0,0,0,3.25,9.41c4.19,9.63,12.19,16.18,23.13,19a69.34,69.34,0,0,0,18.61,2h0c21.1-.51,45.07-15.79,47-39.6,1.16-14.26-7.61-30.6-23.44-43.7a32.94,32.94,0,0,0-4.57-3.36,15.58,15.58,0,0,0-2.06-.71c-1-.3-2.12-.64-3.36-1.13A37.29,37.29,0,0,0,337.55,402.59Z"/><path class="cls-1" d="M440.77,524.07a10.44,10.44,0,0,1-5.64-1.65c-11.58-7.41-21-14.84-30.93-22.71-5.22-4.14-10.62-8.41-16.37-12.68a10.5,10.5,0,1,1,12.51-16.86c6,4.46,11.55,8.83,16.9,13.07,9.52,7.53,18.51,14.65,29.2,21.49a10.5,10.5,0,0,1-5.67,19.34Z"/><path class="cls-1" d="M343.39,580.15c-3.17,0-6.27-.07-9.28-.15s-5.72-.14-8.44-.14l-139.24,0c-28.5,0-45.71-21.33-46-57.05-.17-19.15,0-38.6.27-57.4.16-14,.33-28.54.33-42.77V315.93c0-15.71,0-35.26,19.3-48,16-10.62,35.48-9,51.09-7.75l3.63.29c16.73,1.3,60.66,1,84.25.77l8.15-.06h.07a11,11,0,0,1,.07,22l-8.12.06c-23.92.19-68.45.54-86.12-.83l-3.73-.3c-13.49-1.11-27.45-2.25-37.15,4.17-8.59,5.68-9.45,13-9.44,29.68v106.7c0,14.35-.17,28.93-.33,43-.22,18.69-.44,38-.27,57,.21,23.38,8.3,35.24,24,35.24l139.23,0c3,0,6,.07,9,.15,10.37.26,21.09.52,29.68-2.58s13.53-9.54,13.53-17.34v-22.3a11,11,0,0,1,22,0v22.3c0,17.21-10.75,31.78-28.05,38C362.51,579.48,352.69,580.15,343.39,580.15Z"/><path class="cls-1" d="M192.45,366.73c8.87-.05,17.74.43,26.61.51,23.78.2,47.58-.73,71.33-1.63,14.44-.55,14.51-23.05,0-22.5-23.75.9-47.55,1.83-71.33,1.63-8.87-.08-17.74-.56-26.61-.51-14.48.07-14.51,22.57,0,22.5Z"/><path class="cls-1" d="M192.45,326.29c20.84-.12,41.68-.7,62.52-1s41.54,1.48,62.33,1.1c14.46-.26,14.51-22.76,0-22.5-20.79.38-41.54-1.45-62.33-1.1s-41.68.92-62.52,1c-14.48.08-14.51,22.58,0,22.5Z"/><path class="cls-1" d="M192.45,407.27q31.4-.31,62.81-.1c14.48.1,14.5-22.4,0-22.5q-31.41-.21-62.81.1c-14.47.14-14.51,22.64,0,22.5Z"/><path class="cls-1" d="M395.89,384.15a11,11,0,0,1-11-11V302.58a19.46,19.46,0,0,0-19.44-19.44H301.72a11,11,0,0,1,0-22h63.73a41.49,41.49,0,0,1,41.44,41.44v70.57A11,11,0,0,1,395.89,384.15Z"/></svg>