<svg id="Layer_1" data-name="Layer 1" xmlns="http://www.w3.org/2000/svg" viewBox="0 0 595.28 841.89"><defs><style>.cls-1{fill:#f66;}</style></defs><path class="cls-1" d="M204.75,400.25A45.3,45.3,0,0,1,174,388c-9.78-9.17-14.53-21.86-13.38-35.74a37.33,37.33,0,0,1,17.32-28.63,40.69,40.69,0,0,1,35.81-3.69c19.1,7.09,30.66,22,30.17,39-.62,21.59-13.83,38-32.88,40.84h0A42.48,42.48,0,0,1,204.75,400.25Zm4.58-11.84h0Zm-9.82-48a17.22,17.22,0,0,0-9.26,2.65,14.17,14.17,0,0,0-6.73,11.13c-.71,8.63,3,14,6.18,17A22.39,22.39,0,0,0,207.63,377c12.18-1.81,13.2-15.94,13.28-18.75.23-8.13-8-14.12-15.19-16.78A17.77,17.77,0,0,0,199.51,340.39Z"/><path class="cls-1" d="M283.27,398.57c-23.89,0-50.24-13.52-57.1-44.43h0a53.46,53.46,0,0,1-1.08-7.26c-1.89-24.55,17.16-57.84,43.65-62.35,20-3.41,41.65,3.52,56.56,18.08,13.18,12.87,19,29.5,16.51,46.82-4.78,32.67-31.69,48.2-56.23,49.09C284.81,398.55,284,398.57,283.27,398.57Zm-35.63-49.2c4.64,20.89,22.9,27.67,37.12,27.17s32.12-8.77,35.27-30.3c2-13.71-5.48-23.36-10.11-27.89-9.82-9.58-24.53-14.35-37.5-12.14-13.91,2.37-26.5,24.68-25.4,39a28.9,28.9,0,0,0,.62,4.18Z"/><path class="cls-1" d="M378.23,400.17a42.84,42.84,0,0,1-9.7-1.11c-17.82-4.13-30.17-17.79-33-36.52h0c-3.23-21.11,6.11-43.59,22.21-53.45,8.23-5,25.33-11.13,47.38,4.75,20.72,14.91,26.5,36.94,15.47,58.92C412,389.81,395.47,400.17,378.23,400.17Zm-20-41.11c1,6.62,4.52,15.05,15.5,17.6,11.25,2.61,21.73-5.18,26.27-14.21,5.93-11.83,3.2-21.63-8.36-29.95-8.58-6.17-16-7.45-21.93-3.8-8.13,5-13.28,18.6-11.48,30.36Z"/><path class="cls-1" d="M126.45,552.78A12.86,12.86,0,0,1,113.65,541c-2.28-27.92.52-52.42,8.31-72.82,8.92-23.37,24.32-41.44,45.78-53.7a12.86,12.86,0,1,1,12.76,22.33c-31.4,18-45.27,52.3-41.21,102.1a12.86,12.86,0,0,1-11.78,13.86C127.15,552.76,126.8,552.78,126.45,552.78Z"/><path class="cls-1" d="M198.34,566.52A12.86,12.86,0,0,1,185.56,555c-2.13-21,1.77-78.53,12.47-99,15.75-30.08,49.37-48,87.73-46.65,38.54,1.31,71,21.51,84.74,52.72,5.07,11.53,7.21,33.19,9.68,62.52.89,10.44,1.72,20.31,2.61,25.54a12.86,12.86,0,0,1-25.36,4.33c-1.07-6.31-1.91-16.23-2.88-27.71-1.54-18.25-3.86-45.82-7.6-54.32C335.34,446,307.28,435.8,284.88,435c-22.24-.75-50.77,7.49-64.06,32.87-7.18,13.72-11.61,65.24-9.67,84.45a12.86,12.86,0,0,1-11.49,14.1Q199,566.52,198.34,566.52Z"/><path class="cls-1" d="M440.85,549.64A12.86,12.86,0,0,1,428,536.78c0-38.72-17.33-86.64-49.43-99.2a12.86,12.86,0,1,1,9.37-24c20.3,7.94,37.41,25.34,49.47,50.3,10.52,21.78,16.31,47.65,16.31,72.86A12.86,12.86,0,0,1,440.85,549.64Z"/></svg>