<svg width="41" height="44" viewBox="0 0 41 44" fill="none" xmlns="http://www.w3.org/2000/svg">
<path d="M31.726 20.0897C31.646 18.9797 29.956 19.3297 30.036 20.4297C30.51 27.2877 30.2518 34.1765 29.266 40.9797H2.97601C3.09601 32.9264 3.21266 24.8797 3.32599 16.8397L3.40601 10.5798C3.30928 8.94406 3.50919 7.30431 3.99603 5.73974C4.69603 4.03974 6.27603 3.40976 7.99603 3.19976C9.92603 2.94976 11.926 2.97977 13.876 2.88977L27.996 2.28973C29.086 2.28973 29.216 0.50975 28.096 0.55975L14.626 1.13977C12.576 1.22977 10.526 1.25974 8.48602 1.41974C6.79377 1.42295 5.15075 1.98938 3.81604 3.02972C1.18604 5.38972 1.696 9.67973 1.646 12.8497C1.586 17.3764 1.52266 21.9098 1.45599 26.4498C1.38933 31.5631 1.31602 36.6731 1.23602 41.7797C1.22492 42.0083 1.30325 42.2322 1.45447 42.404C1.60569 42.5757 1.81789 42.6818 2.04602 42.6998L29.966 42.7498C30.1933 42.7559 30.4145 42.6758 30.5852 42.5256C30.7559 42.3753 30.8633 42.166 30.886 41.9398C31.9732 34.7099 32.255 27.3817 31.726 20.0897Z" fill="#FF6666" stroke="#FF6666" stroke-miterlimit="10"/>
<path d="M39.726 8.86973C38.6491 8.89425 37.5908 8.58561 36.6959 7.986C35.8009 7.38639 35.113 6.52509 34.726 5.51975C34.679 5.3775 34.5875 5.2541 34.4651 5.1677C34.3427 5.0813 34.1958 5.03641 34.046 5.03971C34.0406 4.7954 34.0205 4.55165 33.986 4.30973C33.846 3.20973 32.146 3.5497 32.296 4.6497C32.4467 6.02673 32.1609 7.4163 31.479 8.62211C30.7972 9.82792 29.7537 10.7891 28.496 11.3697C27.496 11.8297 28.2361 13.2997 29.2561 12.9197C29.8412 12.7114 30.4696 12.655 31.0825 12.7557C31.6954 12.8565 32.2726 13.1111 32.7602 13.4958C33.2478 13.8805 33.6299 14.3827 33.8705 14.9553C34.1111 15.5279 34.2024 16.1522 34.136 16.7698C34.026 17.8798 35.736 17.9897 35.856 16.8797C36.0082 15.5645 36.4676 14.3035 37.1972 13.1986C37.9268 12.0938 38.9062 11.1761 40.056 10.5198C40.726 10.1298 40.646 8.85973 39.726 8.86973ZM35.0661 13.5097C34.7392 12.9674 34.3194 12.4867 33.826 12.0897C33.2221 11.6017 32.5138 11.2595 31.7561 11.0897C32.7264 10.0542 33.4149 8.78718 33.7561 7.40971C34.6301 8.74778 35.9358 9.74645 37.456 10.2397C36.4518 11.1641 35.6368 12.2746 35.056 13.5097H35.0661Z" fill="#FF6666" stroke="#FF6666" stroke-miterlimit="10"/>
<path d="M20.126 10.0098H9.12602C8.01602 10.0098 7.90597 11.7397 9.01597 11.7397H20.016C21.126 11.7397 21.246 10.0098 20.126 10.0098Z" fill="#FF6666" stroke="#FF6666" stroke-miterlimit="10"/>
<path d="M14.076 17.1298H9.07597C8.96304 17.1225 8.84983 17.1376 8.74272 17.1741C8.63562 17.2107 8.53673 17.268 8.45177 17.3428C8.3668 17.4175 8.29738 17.5082 8.24748 17.6098C8.19759 17.7114 8.16822 17.8218 8.161 17.9347C8.15377 18.0477 8.16888 18.161 8.20543 18.2681C8.24198 18.3752 8.29926 18.474 8.37401 18.5589C8.44876 18.6439 8.53952 18.7133 8.6411 18.7632C8.74268 18.8131 8.85305 18.8425 8.96599 18.8497H13.966C14.1946 18.8608 14.4184 18.7825 14.5902 18.6313C14.7619 18.4801 14.868 18.2679 14.886 18.0397C14.897 17.8122 14.8183 17.5895 14.6669 17.4193C14.5154 17.2492 14.3032 17.1452 14.076 17.1298Z" fill="#FF6666" stroke="#FF6666" stroke-miterlimit="10"/>
<path d="M24.396 17.1298H18.396C18.1687 17.1236 17.9474 17.2037 17.7768 17.354C17.6061 17.5042 17.4986 17.7135 17.476 17.9398C17.465 18.1673 17.5437 18.3901 17.6951 18.5602C17.8466 18.7304 18.0587 18.8343 18.286 18.8498H24.286C24.5146 18.8609 24.7384 18.7825 24.9102 18.6313C25.0819 18.4801 25.188 18.2679 25.206 18.0398C25.217 17.8122 25.1383 17.5895 24.9869 17.4193C24.8354 17.2492 24.6232 17.1452 24.396 17.1298Z" fill="#FF6666" stroke="#FF6666" stroke-miterlimit="10"/>
<path d="M23.726 23.9798L9.13598 24.3098C8.03598 24.3098 7.916 26.0597 9.026 26.0297L23.616 25.7097C24.726 25.6797 24.806 23.9498 23.726 23.9798Z" fill="#FF6666" stroke="#FF6666" stroke-miterlimit="10"/>
<path d="M16.9261 30.9998H8.72604C8.49811 30.9912 8.2756 31.0704 8.1044 31.2212C7.9332 31.3719 7.8264 31.5826 7.80606 31.8098C7.79234 32.039 7.86978 32.2643 8.02151 32.4367C8.17324 32.609 8.38696 32.7143 8.61606 32.7298H16.796C17.0137 32.7248 17.2216 32.6383 17.3786 32.4875C17.5357 32.3367 17.6304 32.1325 17.6443 31.9152C17.6581 31.6979 17.59 31.4833 17.4533 31.3139C17.3166 31.1444 17.1213 31.0323 16.906 30.9998H16.9261Z" fill="#FF6666" stroke="#FF6666" stroke-miterlimit="10"/>
</svg>
