<svg width="49" height="43" viewBox="0 0 49 43" fill="none" xmlns="http://www.w3.org/2000/svg">
<path d="M40.961 9.76667C41.0058 9.65158 41.0237 9.52772 41.0133 9.40467C41.0029 9.28161 40.9645 9.16259 40.901 9.05665C38.5334 5.43502 35.0981 2.63928 31.071 1.05665C29.871 0.586645 29.221 2.47666 30.411 2.94666C33.3089 4.0872 35.874 5.93709 37.871 8.32666C33.4151 6.45318 28.4174 6.32462 23.871 7.96662C22.661 8.40662 23.551 10.1967 24.751 9.76667C28.4124 8.487 32.3996 8.487 36.061 9.76667C30.9262 13.3802 27.2352 18.6936 25.641 24.7667C25.5749 25.0201 25.6107 25.2894 25.741 25.5167C23.5549 25.2642 21.3404 25.448 19.2259 26.0577C17.1114 26.6673 15.1389 27.6906 13.4228 29.0681C11.7066 30.4457 10.281 32.1502 9.22842 34.0828C8.17586 36.0154 7.51734 38.1377 7.29104 40.3267H2.40102C1.12102 40.3267 0.991028 42.3267 2.28103 42.3267H43.971C45.241 42.3267 45.381 40.3267 44.091 40.3267H39.181C39.3471 40.2233 39.4792 40.0734 39.561 39.8956C39.6428 39.7179 39.6706 39.5201 39.641 39.3267C39.1075 36.2652 37.745 33.4085 35.7016 31.0672C33.6582 28.7259 31.0122 26.9894 28.051 26.0466C27.791 25.9666 27.541 25.8967 27.281 25.8367C27.4027 25.7193 27.4892 25.5704 27.531 25.4066C29.048 19.4742 32.7154 14.3171 37.821 10.9367V21.5667C37.821 22.8467 39.821 22.9866 39.821 21.6866V11.5566C41.6418 11.9647 43.2458 13.0351 44.3214 14.5598C45.397 16.0844 45.8673 17.9545 45.641 19.8066C45.6329 19.938 45.6508 20.0697 45.6937 20.1942C45.7366 20.3186 45.8036 20.4333 45.891 20.5318C45.9783 20.6303 46.0842 20.7106 46.2026 20.768C46.321 20.8255 46.4496 20.859 46.581 20.8666C46.8448 20.8831 47.1042 20.7946 47.3028 20.6203C47.5015 20.446 47.6231 20.2003 47.641 19.9366C48.371 15.4966 45.181 11.0167 40.961 9.76667ZM37.711 39.7667C37.7262 39.885 37.7649 39.9991 37.8251 40.1022C37.8852 40.2053 37.9654 40.2952 38.061 40.3666H9.34103C10.071 33.5566 16.101 27.5766 23.041 27.3666C26.5514 27.369 29.9476 28.6132 32.6288 30.8789C35.31 33.1447 37.1032 36.2859 37.691 39.7466L37.711 39.7667Z" fill="#FF6666" stroke="#FF6666" stroke-miterlimit="10"/>
</svg>
